<svg width="64" height="64" viewBox="0 0 64 64" fill="none" xmlns="http://www.w3.org/2000/svg">
<path d="M64 58.0024C64 61.3161 61.3137 64.0024 58 64.0024H6C2.68629 64.0024 0 61.3161 0 58.0024V6.00244C0 2.68873 2.68629 0.00244141 6 0.00244141H58C61.3137 0.00244141 64 2.68873 64 6.00244V58.0024Z" fill="#2E3092"/>
<path d="M52 26.2272V44.1861L47.7591 45.8305L47.788 41.8781H47.7591L43.5326 40.2193V29.3718C43.5326 27.7706 42.5662 26.3137 41.0804 25.7079L33.1323 22.4479L36.0606 25.2752V42.383C36.0606 44.0274 34.8489 45.9603 33.3054 46.5662C32.8006 46.7825 32.2524 46.8979 31.7187 46.8979C31.1562 46.8979 30.6224 46.7825 30.1031 46.5806L22.2993 43.436C22.2705 43.436 22.256 43.436 22.2272 43.4071L14.8561 40.4645C13.1251 39.7721 12 38.0844 12 36.238V19.9524L19.9481 16.4616L26.3238 18.8128V25.2752L21.2752 23.3999C20.3808 23.0682 19.4432 23.7173 19.4432 24.6693V32.6895C19.4432 34.5503 20.5683 36.238 22.2993 36.9448L26.1796 38.5316C26.973 38.8489 27.8384 38.2719 27.8384 37.4208V20.2265C27.8384 18.5676 28.7761 17.0242 30.2907 16.375C30.8532 16.1298 31.4446 16 32.0649 16C32.5986 16 33.1179 16.101 33.6228 16.2885L36.7241 17.5146L49.4901 22.5344C51.0047 23.1259 52 24.5972 52 26.2272Z" fill="white"/>
<path d="M37.5894 41.8638V45.1959L43.5468 47.4462L47.7733 45.8162L43.5468 44.1862L37.5894 41.8638Z" fill="white"/>
</svg>
